<svg width="71" height="65" viewBox="0 0 71 65" fill="none" xmlns="http://www.w3.org/2000/svg">
<path d="M63.5795 48.2839C75.4624 35.8447 70.7688 20.5688 65.4636 12.4173C60.1584 4.26581 50.8537 -1.01635 41.1854 0.14116C32.8062 1.15195 29.9636 5.52114 25.3525 14.6671C21.8653 21.6122 19.9647 26.0792 14.2464 24.8402C9.60231 23.8457 10.5278 16.1996 18.3286 6.05914C19.8986 4.02127 18.2294 2.26055 15.9322 2.79855C13.6349 3.33655 1.47102 11.5369 0.198443 25.0032C-0.793177 35.4697 2.03294 42.2844 6.61092 45.4635C7.64323 46.2056 8.82706 46.7169 10.08 46.9618C11.333 47.2068 12.6251 47.1795 13.8663 46.8818C14.9511 46.612 16.0869 46.612 17.1717 46.8818C18.0311 47.2079 19.535 48.2839 20.9398 48.7404C23.9489 49.8592 27.2029 50.1796 30.3768 49.6696C37.3181 48.7404 40.293 44.7787 45.3668 40.3769C53.3824 33.3993 59.2329 43.1484 48.1929 48.7404C45.532 50.0935 40.4252 52.3922 38.1775 55.718C37.3746 56.6778 36.8606 57.8404 36.6941 59.0739C36.5276 60.3073 36.7151 61.5622 37.2355 62.6957C38.4585 65.1249 41.0201 65.6629 41.4333 64.163C42.0106 62.2866 43.1659 60.6342 44.7387 59.4351C49.4489 55.718 56.0432 56.1908 63.5795 48.2839Z" fill="white"/>
</svg>
